<svg id="Layer_1" data-name="Layer 1" xmlns="http://www.w3.org/2000/svg" xmlns:xlink="http://www.w3.org/1999/xlink" viewBox="0 0 194 41"><defs><style>.cls-1{fill:none;}.cls-2{clip-path:url(#clip-path);}.cls-3{fill:#f05a28;}.cls-4{clip-path:url(#clip-path-2);}.cls-5{fill:url(#linear-gradient);}.cls-6{clip-path:url(#clip-path-3);}.cls-7{fill:url(#linear-gradient-2);}.cls-8{clip-path:url(#clip-path-4);}.cls-9{fill:url(#linear-gradient-3);}.cls-10{fill:#404041;}.cls-11{fill:#58595b;}.cls-12{fill:#59595b;}</style><clipPath id="clip-path"><rect class="cls-1" x="-50.77" y="-22.8" width="151.46" height="113.6"/></clipPath><clipPath id="clip-path-2"><path class="cls-1" d="M10.67,23.28V18.1l-6,6.47H7.12l1.87-2,0,2h2c1.85,0,3.28-1.5,4.32-2.6s4-4.37,4-4.37l3.06,5.94a1.83,1.83,0,0,0,2,.95l.77-.36.26.44h3.4l1.41-1.95v1.87c2.6.13,3.15-.6,4.24-1.79s3-3.4,3-3.4L35,19.44l-2.73,3.1V16.7l-4.79,6.72s-2.95-6.11-3.94-8.25-3-.62-3-.62,4.12,8.61,4.54,9.28c-.41.44-.56.3-.56.3L19.43,13.94Z"/></clipPath><linearGradient id="linear-gradient" x1="-467.25" y1="445.84" x2="-467.11" y2="445.84" gradientTransform="matrix(0, 299.53, 299.53, 0, -133522.56, 139955.94)" gradientUnits="userSpaceOnUse"><stop offset="0" stop-color="#ec0f67"/><stop offset="0.41" stop-color="#ec0f67"/><stop offset="0.58" stop-color="#4e62ac"/><stop offset="1" stop-color="#4e62ac"/></linearGradient><clipPath id="clip-path-3"><path class="cls-1" d="M.82,19.79a6.36,6.36,0,0,0,.33,2.11c.52,1.3,1.63,3.31,3.12,2.13.1-.08.3-.21.34-.36s-.12-.2-.17-.34a11.07,11.07,0,0,1-.27-3.81,16.67,16.67,0,0,1,33.28-.22c2.21-1.13,3.07.58,3.36,1.57a20.74,20.74,0,0,0-.48-5c-1.48-6.74-8.28-13.54-15-15A21.2,21.2,0,0,0,20.82.4a20,20,0,0,0-20,19.39"/></clipPath><linearGradient id="linear-gradient-2" x1="-467.25" y1="445.84" x2="-467.11" y2="445.84" gradientTransform="matrix(0, 299.53, 299.53, 0, -133522.58, 139955.95)" gradientUnits="userSpaceOnUse"><stop offset="0" stop-color="#ec0f67"/><stop offset="0.41" stop-color="#ec0f67"/><stop offset="0.63" stop-color="#4e62ac"/><stop offset="1" stop-color="#4e62ac"/></linearGradient><clipPath id="clip-path-4"><path class="cls-1" d="M38.15,19.76a4.68,4.68,0,0,0-.49.23c-.16.07-.29.14-.29.28s.11.44.11.61v0h0a.34.34,0,0,0,0,.1,16.67,16.67,0,0,1-32.8,3.56c-.28.23-2.4,1.83-3.64-1.2a20,20,0,0,0,39.39,1A5.72,5.72,0,0,0,40.48,23c-.45-2.82-1.36-3.22-1.94-3.27h-.07a.87.87,0,0,0-.32.06"/></clipPath><linearGradient id="linear-gradient-3" x1="-467.25" y1="445.84" x2="-467.11" y2="445.84" gradientTransform="matrix(0, 299.53, 299.53, 0, -133522.52, 139955.91)" xlink:href="#linear-gradient-2"/></defs><title>logov2</title><g class="cls-2"><path class="cls-3" d="M4.67,24.57l6-6.47v5.18l8.76-9.34,5.11,10.19s.15.14.56-.3c-.42-.67-4.54-9.28-4.54-9.28s2-1.54,3,.62,3.94,8.25,3.94,8.25l4.79-6.72v5.84L35,19.44l2.41-.14-3,3.4a5.5,5.5,0,0,1-4.24,1.79V22.62l-1.41,1.95h-3.4l-.26-.44-.77.36a1.83,1.83,0,0,1-2-.95L19.3,17.6l-4,4.37s-2.87,2.42-4.32,2.6H9l0-2-1.87,2Z"/><path class="cls-3" d="M4.27,24c.1-.08.3-.21.34-.36s-.12-.21-.17-.34a11.07,11.07,0,0,1-.27-3.81,16.67,16.67,0,0,1,33.28-.22c2.21-1.13,3.07.58,3.36,1.57a20.74,20.74,0,0,0-.48-5c-1.48-6.74-8.28-13.54-15-15A20,20,0,0,0,.82,19.79a6.36,6.36,0,0,0,.33,2.11c.52,1.3,1.63,3.31,3.12,2.13"/><path class="cls-3" d="M40.48,23c-.45-2.82-1.36-3.22-1.94-3.27a.89.89,0,0,0-.39.06,4.68,4.68,0,0,0-.49.23c-.16.07-.29.14-.29.28s.11.44.11.61v0h0a.34.34,0,0,0,0,.1,16.67,16.67,0,0,1-32.8,3.56c-.28.23-2.4,1.83-3.64-1.2a20,20,0,0,0,39.39,1A5.72,5.72,0,0,0,40.48,23"/></g><g class="cls-4"><rect class="cls-5" x="4.64" y="12.92" width="32.84" height="12.04" transform="translate(-0.11 0.12) rotate(-0.32)"/></g><g class="cls-6"><rect class="cls-7" x="0.75" y="0.29" width="40.17" height="25.03" transform="matrix(1, -0.01, 0.01, 1, -0.07, 0.12)"/></g><g class="cls-8"><rect class="cls-9" x="0.97" y="19.59" width="39.61" height="20.93" transform="translate(-0.17 0.12) rotate(-0.32)"/></g><path class="cls-10" d="M51.29,15.35c.39-.78.8-1.56,1.21-2.34.6-1.2,1-2,1.26-2.52q.63-1.26,1.26-2.7l.67.11a2.38,2.38,0,0,0,.34,0l.37-.07c.15,1.36.31,2.77.47,4.22s.31,2.65.45,3.62.29,2,.49,3.22c-.21,0-.42,0-.62,0l-.73-.06c-.15,0-.36,0-.64,0a6.13,6.13,0,0,1-.64,0,31.4,31.4,0,0,0-.24-3.61c-.17-1.36-.32-2.67-.47-3.91l-1.21,2.46c-.32.67-.72,1.49-1.19,2.48L50.9,18.76l-.35,0-.26,0q-.76-1.65-1.68-3.51C48,14,47.4,12.77,46.79,11.52c-.11.78-.22,1.64-.34,2.6s-.19,1.82-.25,2.6-.09,1.48-.09,2.13l-.77-.09-.36,0-.38.06c.2-1.11.39-2.24.56-3.39.1-.64.27-1.83.51-3.58s.44-3.11.57-4.09l.67.11.68-.11c.47,1,.86,1.89,1.17,2.53s.77,1.59,1.24,2.52Z"/><path class="cls-10" d="M65.08,15.48H61.32c-.22.61-.36,1.05-.45,1.3-.31.89-.54,1.57-.67,2l-.34,0-.41,0-.42,0-.35,0,4.6-11.15a1.45,1.45,0,0,0,.3,0h.71l.21,0L69,18.85h-.5l-.88-.08-.5,0-.89.07A34,34,0,0,0,65.08,15.48Zm-3.31-1h2.92l-1.41-3.73Z"/><path class="cls-10" d="M70.48,18.85V7.79h3.76a12.44,12.44,0,0,1,1.3.07,2.56,2.56,0,0,1,.95.26A2.52,2.52,0,0,1,77.56,9a2.61,2.61,0,0,1,.35,1.39,2.7,2.7,0,0,1-.68,1.9,3.41,3.41,0,0,1-1.83,1c.3.53.64,1.1,1,1.7.1.17.7,1.11,1.81,2.8l.64,1h-.53l-.94-.08c-.17,0-.41,0-.73,0s-.56,0-.73,0l-1.89-3.4L73,13.68h-.09v5.17a5.67,5.67,0,0,1-.61,0c-.27,0-.47,0-.61,0s-.33,0-.59,0A5.67,5.67,0,0,1,70.48,18.85ZM72.89,8.66V13l.39,0c1.41,0,2.12-.78,2.12-2.32,0-.12,0-.24,0-.36a1.92,1.92,0,0,0-.06-.44,1.3,1.3,0,0,0-.75-1,3.3,3.3,0,0,0-1.23-.19Z"/><path class="cls-10" d="M80.41,18.85V7.79c.13,0,.33,0,.6,0a4.28,4.28,0,0,0,.59.06,4.51,4.51,0,0,0,.61-.06c.27,0,.47,0,.61,0v5.05l2.11-2.5L87,7.79l.86.11a3.22,3.22,0,0,0,.39,0l.45-.07v.14l-2.64,2.76-1.51,1.7,4.31,6.21v.25a5.67,5.67,0,0,1-.6,0c-.27,0-.46,0-.59,0s-.34,0-.61,0a5.67,5.67,0,0,1-.61,0l-3.64-5.14v5.14a5.67,5.67,0,0,1-.61,0c-.27,0-.47,0-.61,0s-.33,0-.59,0A5.67,5.67,0,0,1,80.41,18.85Z"/><path class="cls-10" d="M90.44,7.79h7.39q0,.18-.06.42c0,.16,0,.26,0,.29l.09.68c-.54-.06-1.23-.11-2-.15S94.18,9,93.43,9h-.58v3.47h2.57q.75,0,1.14,0c.26,0,.66-.06,1.21-.13,0,.23-.09.47-.13.7a2.31,2.31,0,0,0,0,.32q0,.2.09.36l-1.16-.08c-.49,0-.89-.05-1.19-.05H92.85v4.09c.93,0,1.84,0,2.74-.07s1.64-.1,2.24-.16l-.09.67a2.24,2.24,0,0,0,0,.34l.06.37H90.44Z"/><path class="cls-10" d="M104.86,9v9.89a5.68,5.68,0,0,1-.59,0c-.27,0-.46,0-.59,0a6.08,6.08,0,0,0-.61,0,5.67,5.67,0,0,1-.62,0V9c-.53,0-1,0-1.55,0s-1,.09-1.44.17c0-.14.05-.28.07-.43s0-.24,0-.28a1.91,1.91,0,0,0,0-.32c0-.12,0-.24-.07-.36h8.3c0,.23-.06.45-.1.68a2.38,2.38,0,0,0,0,.36c0,.12,0,.24.07.35-.55-.08-1.05-.13-1.51-.17S105.33,9,104.86,9Z"/><path class="cls-10" d="M109.72,18.85V7.79c.13,0,.33,0,.6,0a4.54,4.54,0,0,0,.6.06,4.66,4.66,0,0,0,.61-.06c.27,0,.47,0,.6,0V18.85a5.67,5.67,0,0,1-.6,0c-.27,0-.48,0-.61,0s-.33,0-.6,0A5.67,5.67,0,0,1,109.72,18.85Z"/><path class="cls-10" d="M115.09,18.82v-11h1.61l7,7.53V7.79l.33,0,.31,0,.64-.07V18.85l-1.38,0c-.91-1-1.82-2-2.72-3.05-.77-.86-1.66-1.83-2.68-2.93L116.38,11v7.81l-.34,0-.3,0Z"/><path class="cls-10" d="M137.82,13.87v4.44c-.83.24-1.58.42-2.25.55a10.73,10.73,0,0,1-2,.19,7.2,7.2,0,0,1-4.48-1.32,4.93,4.93,0,0,1-2-4.18A5.62,5.62,0,0,1,129,9a7.06,7.06,0,0,1,4.73-1.53,8.19,8.19,0,0,1,2,.24,6.7,6.7,0,0,1,1.82.76,6,6,0,0,0-.44,1.61H137a3.76,3.76,0,0,0-3.15-1.64,3.48,3.48,0,0,0-3,1.56,6,6,0,0,0-1,3.59,5,5,0,0,0,1,3.28,3.56,3.56,0,0,0,2.85,1.19,3.48,3.48,0,0,0,1-.12,3.72,3.72,0,0,0,.78-.33V13.87a5.67,5.67,0,0,1,.61,0l.61,0,.68,0Z"/><path class="cls-11" d="M139.23,8.28l-.13-.49c.15,0,.37,0,.66,0a5.25,5.25,0,0,0,.66.06c.22,0,.46,0,.71,0l.61-.07c.34,1.45.68,2.82,1,4.11s.72,2.6,1.09,3.93c.22-.63.54-1.52.95-2.65.24-.67.57-1.57,1-2.72s.7-2,.89-2.67l.37,0,.43,0,.43,0,.37,0q.36,1.35.9,3c1.05,3.16,1.59,4.83,1.64,5,.47-1.4.88-2.72,1.26-4,.45-1.5.83-2.85,1.12-4.07l.38,0,.39,0,.75-.07c-.74,2-1.4,3.84-2,5.54-.65,1.9-1.25,3.75-1.79,5.52l-.48-.06-.32,0-.39,0-.41.06c-.23-.82-.49-1.71-.79-2.66s-.63-2-.85-2.63c-.08-.2-.39-1.06-.94-2.58-.19.55-.5,1.4-.91,2.55s-.68,1.89-.94,2.59l-1,2.73-.48-.06-.32,0-.38,0-.42.06c-.25-1-.57-2.15-1-3.54-.35-1.19-.7-2.36-1.06-3.53Z"/><path class="cls-11" d="M165.53,13.23a6.1,6.1,0,0,1-1.4,4.09,4.77,4.77,0,0,1-3.8,1.73,4.55,4.55,0,0,1-3.59-1.52,6.18,6.18,0,0,1-1.33-4.23,6.08,6.08,0,0,1,1.36-4.09,4.82,4.82,0,0,1,3.88-1.71,4.36,4.36,0,0,1,3.85,1.93A6.64,6.64,0,0,1,165.53,13.23Zm-5-4.76a2.38,2.38,0,0,0-2.16,1.32,8.17,8.17,0,0,0-.76,4,6.21,6.21,0,0,0,.62,2.94,2.29,2.29,0,0,0,2.11,1.37,2.51,2.51,0,0,0,2.27-1.57,7.78,7.78,0,0,0,.72-3.58,6.4,6.4,0,0,0-.64-3A2.36,2.36,0,0,0,160.55,8.47Z"/><path class="cls-11" d="M167.13,18.85V7.79h3.76a12.64,12.64,0,0,1,1.31.07,2.68,2.68,0,0,1,1,.26,2.55,2.55,0,0,1,1.06.92,2.61,2.61,0,0,1,.35,1.39,2.65,2.65,0,0,1-.68,1.9,3.38,3.38,0,0,1-1.82,1c.29.53.63,1.1,1,1.7.1.17.71,1.11,1.81,2.8l.65,1H175l-.94-.08c-.16,0-.4,0-.73,0s-.56,0-.72,0l-1.89-3.4-1.07-1.77h-.1v5.17a5.51,5.51,0,0,1-.6,0c-.27,0-.48,0-.61,0s-.33,0-.6,0A5.67,5.67,0,0,1,167.13,18.85Zm2.41-10.19V13l.39,0c1.42,0,2.13-.78,2.13-2.32,0-.12,0-.24,0-.36s0-.27-.06-.44a1.33,1.33,0,0,0-.76-1A3.3,3.3,0,0,0,170,8.66Z"/><path class="cls-11" d="M177.06,18.85V7.79c.14,0,.33,0,.6,0a4.54,4.54,0,0,0,.6.06,4.66,4.66,0,0,0,.61-.06c.27,0,.47,0,.6,0v5.05l2.11-2.5c.81-1,1.51-1.84,2.08-2.55l.86.11a3.22,3.22,0,0,0,.39,0l.45-.07v.14l-2.64,2.76-1.51,1.7,4.31,6.21v.25a5.52,5.52,0,0,1-.59,0c-.27,0-.47,0-.6,0s-.34,0-.61,0a5.67,5.67,0,0,1-.61,0l-3.64-5.14v5.14a5.67,5.67,0,0,1-.6,0c-.27,0-.48,0-.61,0s-.33,0-.6,0A5.51,5.51,0,0,1,177.06,18.85Z"/><path class="cls-11" d="M192.33,9.89h-.22a2.35,2.35,0,0,0-.71-1.05,1.76,1.76,0,0,0-1.15-.37,1.8,1.8,0,0,0-1.33.43,1.57,1.57,0,0,0-.44,1.15c0,.58.42,1.1,1.25,1.56,1.5.82,2.29,1.27,2.37,1.33a3.28,3.28,0,0,1,.07,5.11,4.56,4.56,0,0,1-3,1,5.81,5.81,0,0,1-1.39-.17,3.68,3.68,0,0,1-1.21-.54q.14-.51.27-1.05a9.61,9.61,0,0,0,.21-1h.29a2.27,2.27,0,0,0,.79,1.29,2.23,2.23,0,0,0,1.43.48,2,2,0,0,0,1.32-.42,1.55,1.55,0,0,0,.58-1.26,2,2,0,0,0-1.24-1.7l-2.3-1.22a3.11,3.11,0,0,1-1.26-2.61,3.23,3.23,0,0,1,.93-2.38,3.78,3.78,0,0,1,2.77-1,4.37,4.37,0,0,1,1.52.25,3,3,0,0,1,1,.53c-.1.26-.19.54-.29.86S192.39,9.71,192.33,9.89Z"/><path class="cls-12" d="M48.67,29.31l1.09-2.82.63-1.75.08-.17.18,0h.2l.2,0,.17,0c-.08.16-.36.79-.84,1.91s-.91,2.12-1.29,3c-.48,1.16-.77,1.9-.87,2.24l-.21,0h-.13l-.1,0c-.31-.64-.73-1.56-1.25-2.75-.39-.9-.77-1.79-1.14-2.66s-.64-1.46-.79-1.76l.24,0h.26l.28,0,.24,0,.38,1,.71,1.82L48,30.59h.1C48.28,30.16,48.48,29.74,48.67,29.31Z"/><path class="cls-12" d="M53,25a.52.52,0,0,1-.16.36.54.54,0,0,1-.37.16.55.55,0,0,1-.38-.15.49.49,0,0,1-.16-.37.53.53,0,0,1,.16-.39.52.52,0,0,1,.38-.16.5.5,0,0,1,.37.16A.53.53,0,0,1,53,25Zm-.11,1.77v5l-.42,0h-.17l-.24,0v-5l.22,0h.19Z"/><path class="cls-12" d="M58.65,30.65l0,.55a3.79,3.79,0,0,1-.87.45,2.49,2.49,0,0,1-.94.17A2.39,2.39,0,0,1,55,31.13a2.6,2.6,0,0,1-.68-1.9A2.68,2.68,0,0,1,55,27.4a2.26,2.26,0,0,1,1.79-.74,2,2,0,0,1,1.47.58A2.36,2.36,0,0,1,58.88,29v.23l-1.22,0-.9,0H55.28l0,.2a2.11,2.11,0,0,0,.48,1.41,1.73,1.73,0,0,0,1.36.56,1.91,1.91,0,0,0,.93-.25A3.17,3.17,0,0,0,58.65,30.65ZM55.4,26.24H55l1.29-1.75h.57l1.3,1.75h-.36l-1.21-1.11Zm-.12,2.57h2.78a2.56,2.56,0,0,0-.26-1.25,1.11,1.11,0,0,0-1-.57,1.27,1.27,0,0,0-1.1.58A2,2,0,0,0,55.28,28.81Zm1.42,4.47a.47.47,0,0,1-.33-.14.46.46,0,0,1-.15-.34.46.46,0,0,1,.15-.33.44.44,0,0,1,.33-.15.48.48,0,0,1,.34.14.48.48,0,0,1-.34.82Z"/><path class="cls-12" d="M64,27.1l-.23.69h-.08a.61.61,0,0,1-.1-.14,1.42,1.42,0,0,0-.2-.22,1.16,1.16,0,0,0-.45-.31,1.6,1.6,0,0,0-.57-.11,1.58,1.58,0,0,0-1.35.67,2.39,2.39,0,0,0-.45,1.48,2.49,2.49,0,0,0,.52,1.65,1.81,1.81,0,0,0,2.17.46,4.18,4.18,0,0,0,.66-.49l.06,0-.06.48a2.74,2.74,0,0,1-.75.41,2.65,2.65,0,0,1-.85.13,2.62,2.62,0,0,1-2-.75,2.58,2.58,0,0,1-.68-1.86,2.38,2.38,0,0,1,.75-1.87,2.81,2.81,0,0,1,2-.68,3.75,3.75,0,0,1,.87.09A2.94,2.94,0,0,1,64,27.1Z"/><path class="cls-12" d="M72.29,27.1l-.23.69H72a.61.61,0,0,1-.1-.14,1.42,1.42,0,0,0-.2-.22,1.16,1.16,0,0,0-.45-.31,1.6,1.6,0,0,0-.57-.11,1.58,1.58,0,0,0-1.35.67,2.39,2.39,0,0,0-.45,1.48,2.49,2.49,0,0,0,.52,1.65,1.81,1.81,0,0,0,2.17.46,4.18,4.18,0,0,0,.66-.49l.06,0-.06.48a2.74,2.74,0,0,1-.75.41,2.65,2.65,0,0,1-.85.13,2.62,2.62,0,0,1-2-.75,2.58,2.58,0,0,1-.68-1.86,2.38,2.38,0,0,1,.75-1.87,2.81,2.81,0,0,1,2-.68,3.75,3.75,0,0,1,.87.09A2.94,2.94,0,0,1,72.29,27.1Z"/><path class="cls-12" d="M73.56,31.74V23.88l.42,0,.42,0v3.81a2,2,0,0,1,.69-.76,1.83,1.83,0,0,1,1-.27,1.55,1.55,0,0,1,1.29.51,2.53,2.53,0,0,1,.4,1.54v3l-.42,0h-.18l-.24,0v-2.8a2.6,2.6,0,0,0-.24-1.3,1,1,0,0,0-.93-.44,1.24,1.24,0,0,0-1,.42,2.07,2.07,0,0,0-.32,1.25v2.87l-.42,0H73.8Z"/><path class="cls-12" d="M83,28.41v2.43L83,31a.58.58,0,0,0,0,.3c0,.06.11.09.22.09l.33-.06v.23a.94.94,0,0,1-.31.1l-.38.05a.73.73,0,0,1-.48-.15.7.7,0,0,1-.23-.5l-.08.1a2.13,2.13,0,0,1-1.55.67,1.44,1.44,0,0,1-1-.36,1.19,1.19,0,0,1-.41-.93,1.27,1.27,0,0,1,.36-1A3.3,3.3,0,0,1,81.08,29a5.39,5.39,0,0,0,.7-.14.53.53,0,0,0,.41-.55A1.1,1.1,0,0,0,81,27.1a1.44,1.44,0,0,0-.88.27.83.83,0,0,0-.35.46H79.6v-.58a3.45,3.45,0,0,1,.82-.44,2.49,2.49,0,0,1,.87-.15A1.53,1.53,0,0,1,83,28.41Zm-3.06-2.17h-.36l1.29-1.75h.57l1.29,1.75h-.35l-1.21-1.11Zm2.22,4.41V29.12l-.38.07a6,6,0,0,0-1.14.29.94.94,0,0,0-.63.9,1,1,0,0,0,.26.73,1.06,1.06,0,0,0,.76.25,1,1,0,0,0,.46-.12,1,1,0,0,0,.37-.27l.2-.17C82.12,30.73,82.15,30.68,82.15,30.65Zm2-6.79-1.65,1h-.36l1.32-1.31.25-.25.31-.21h.06a.32.32,0,0,1,.34.23l0,.16a.22.22,0,0,1,0,.13.46.46,0,0,1-.12.13Z"/><path class="cls-12" d="M84.66,25.7l.83-.34v1.36H86.6l0,.23,0,.17H85.49v2.63l0,.36a2,2,0,0,0,.22,1.08.68.68,0,0,0,.57.26,1.24,1.24,0,0,0,.27,0l.22-.06v.25a3,3,0,0,1-.45.15,1.91,1.91,0,0,1-.43.06,1.19,1.19,0,0,1-.9-.3,1.72,1.72,0,0,1-.33-1.18l0-.17V27.12H84a.78.78,0,0,0,0-.19.91.91,0,0,0,0-.21h.65Z"/><path class="cls-12" d="M90.35,29.71v-.65H93v.65Z"/><path class="cls-12" d="M104.2,24.57h.21c.15,1.4.24,2.25.28,2.56.06.56.15,1.37.29,2.43.1.76.19,1.49.29,2.18l-.32,0h-.5l-.16,0c-.07-.71-.13-1.41-.19-2.12s-.13-1.34-.19-1.9-.12-1-.17-1.4c-.39.7-.75,1.37-1.1,2s-.63,1.18-.92,1.75-.53,1.09-.71,1.52h-.11l-.59-1.19c-.24-.52-.47-1-.66-1.35l-.72-1.38c-.25-.46-.49-.91-.72-1.37-.26,2.32-.4,3.55-.41,3.67-.07.69-.1,1.27-.1,1.75l-.2,0h-.38l-.17,0c.15-.94.34-2.23.58-3.89s.38-2.76.43-3.28h.27c.28.56.57,1.14.88,1.74l1,1.87c.38.68.74,1.3,1.09,1.86l1-1.78c.32-.61.65-1.21,1-1.79S103.82,25.24,104.2,24.57Z"/><path class="cls-12" d="M110.18,28.41v2.43l0,.15a.71.71,0,0,0,0,.3.24.24,0,0,0,.22.09l.33-.06v.23a.94.94,0,0,1-.31.1l-.38.05a.73.73,0,0,1-.48-.15.69.69,0,0,1-.22-.5l-.09.1a2.12,2.12,0,0,1-1.55.67,1.44,1.44,0,0,1-1-.36,1.19,1.19,0,0,1-.41-.93,1.27,1.27,0,0,1,.36-1,3.31,3.31,0,0,1,1.59-.55,6.28,6.28,0,0,0,.7-.14.54.54,0,0,0,.41-.55,1.26,1.26,0,0,0-.32-.91,1.24,1.24,0,0,0-.92-.32,1.46,1.46,0,0,0-.88.27.83.83,0,0,0-.35.46h-.13v-.58a3.88,3.88,0,0,1,.82-.44,2.5,2.5,0,0,1,.88-.15C109.62,26.66,110.18,27.24,110.18,28.41Zm-.84,2.24V29.12l-.37.07a6.45,6.45,0,0,0-1.15.29.94.94,0,0,0-.63.9.92.92,0,0,0,.27.73,1,1,0,0,0,.76.25,1,1,0,0,0,.45-.12,1.09,1.09,0,0,0,.38-.27l.19-.17C109.31,30.73,109.34,30.68,109.34,30.65Z"/><path class="cls-12" d="M111.93,31.74v-5l.22,0h.2l.42,0v1.05l0-.13a3,3,0,0,1,.6-.69,1.17,1.17,0,0,1,.72-.29.92.92,0,0,1,.33.06l-.15.88-.5-.17a.88.88,0,0,0-.66.26,1.41,1.41,0,0,0-.32.56,3.79,3.79,0,0,0-.06.77v2.72l-.42,0h-.18Z"/><path class="cls-12" d="M116.34,23.88v4.68l0,.21a.12.12,0,0,0,.06.12l.06,0a.89.89,0,0,0,.47-.27l.39-.35.65-.67.81-.9.22,0h.41l.19,0v.09c-.48.4-.9.75-1.24,1.05l-1.06.95.78.92.84,1,.84,1v.06a2.06,2.06,0,0,0-.28,0h-.53l-.23,0c-.23-.31-.54-.69-.93-1.15l-1-1.22a.4.4,0,0,0-.26-.16c-.08,0-.12.13-.12.37v2.16l-.42,0h-.18l-.24,0V23.88l.42,0Z"/><path class="cls-12" d="M124.38,30.65l0,.55a3.79,3.79,0,0,1-.87.45,2.49,2.49,0,0,1-.94.17,2.39,2.39,0,0,1-1.78-.69,2.6,2.6,0,0,1-.68-1.9,2.68,2.68,0,0,1,.61-1.83,2.26,2.26,0,0,1,1.79-.74,2,2,0,0,1,1.47.58,2.36,2.36,0,0,1,.65,1.76v.23l-1.22,0-.9,0H121l0,.2a2.07,2.07,0,0,0,.49,1.41,1.69,1.69,0,0,0,1.35.56,1.91,1.91,0,0,0,.93-.25A3.17,3.17,0,0,0,124.38,30.65ZM121,28.81h2.78a2.56,2.56,0,0,0-.26-1.25,1.11,1.11,0,0,0-1-.57,1.28,1.28,0,0,0-1.1.58A2,2,0,0,0,121,28.81Z"/><path class="cls-12" d="M125.73,25.7l.84-.34v1.36h1.11l0,.23,0,.17h-1.11v2.63l0,.36a1.94,1.94,0,0,0,.22,1.08.66.66,0,0,0,.57.26,1.24,1.24,0,0,0,.27,0l.22-.06v.25a3.1,3.1,0,0,1-.46.15,1.76,1.76,0,0,1-.42.06,1.22,1.22,0,0,1-.91-.3,1.72,1.72,0,0,1-.33-1.18l0-.17V27.12h-.64a.78.78,0,0,0,0-.19.91.91,0,0,0,0-.21h.64Z"/><path class="cls-12" d="M132.63,30.65l0,.55a3.79,3.79,0,0,1-.87.45,2.49,2.49,0,0,1-.94.17,2.39,2.39,0,0,1-1.78-.69,2.6,2.6,0,0,1-.68-1.9A2.68,2.68,0,0,1,129,27.4a2.26,2.26,0,0,1,1.79-.74,2,2,0,0,1,1.47.58,2.36,2.36,0,0,1,.65,1.76v.23l-1.22,0-.9,0h-1.48l0,.2a2.07,2.07,0,0,0,.49,1.41,1.69,1.69,0,0,0,1.35.56,1.91,1.91,0,0,0,.93-.25A3.17,3.17,0,0,0,132.63,30.65Zm-3.37-1.84H132a2.56,2.56,0,0,0-.26-1.25,1.11,1.11,0,0,0-1-.57,1.28,1.28,0,0,0-1.1.58A2,2,0,0,0,129.26,28.81Z"/><path class="cls-12" d="M134.06,31.74v-5l.22,0h.2l.42,0v1.05l0-.13a3.53,3.53,0,0,1,.6-.69,1.17,1.17,0,0,1,.72-.29,1,1,0,0,1,.34.06l-.15.88-.5-.17a.9.9,0,0,0-.67.26,1.37,1.37,0,0,0-.31.56,3.09,3.09,0,0,0-.07.77v2.72l-.42,0h-.18Z"/><path class="cls-12" d="M144.6,27.1l-.23.69h-.09l-.1-.14a1.37,1.37,0,0,0-.19-.22,1.16,1.16,0,0,0-.45-.31A1.66,1.66,0,0,0,143,27a1.56,1.56,0,0,0-1.34.67,2.39,2.39,0,0,0-.45,1.48,2.54,2.54,0,0,0,.51,1.65,1.83,1.83,0,0,0,2.18.46,3.77,3.77,0,0,0,.65-.49l.07,0-.07.48a2.74,2.74,0,0,1-.75.41,2.59,2.59,0,0,1-.84.13,2.62,2.62,0,0,1-2-.75,2.54,2.54,0,0,1-.68-1.86,2.38,2.38,0,0,1,.75-1.87,2.76,2.76,0,0,1,1.94-.68,3.91,3.91,0,0,1,.88.09A2.94,2.94,0,0,1,144.6,27.1Z"/><path class="cls-12" d="M145.87,31.74V23.88l.41,0,.42,0v3.81a2,2,0,0,1,.7-.76,1.8,1.8,0,0,1,1-.27,1.51,1.51,0,0,1,1.28.51,2.46,2.46,0,0,1,.4,1.54v3l-.41,0h-.18l-.24,0v-2.8a2.6,2.6,0,0,0-.24-1.3,1,1,0,0,0-.93-.44,1.22,1.22,0,0,0-1,.42,2,2,0,0,0-.33,1.25v2.87l-.42,0h-.17Z"/><path class="cls-12" d="M155.29,28.41v2.43l0,.15a.56.56,0,0,0,.06.3q0,.09.21.09l.34-.06v.23a1,1,0,0,1-.31.1l-.38.05a.77.77,0,0,1-.49-.15.73.73,0,0,1-.22-.5l-.08.1a2.13,2.13,0,0,1-1.55.67,1.44,1.44,0,0,1-1-.36,1.16,1.16,0,0,1-.41-.93,1.27,1.27,0,0,1,.36-1,3.3,3.3,0,0,1,1.58-.55,5.39,5.39,0,0,0,.7-.14.54.54,0,0,0,.41-.55,1.26,1.26,0,0,0-.32-.91,1.22,1.22,0,0,0-.92-.32,1.41,1.41,0,0,0-.87.27.85.85,0,0,0-.36.46h-.12v-.58a3.59,3.59,0,0,1,.81-.44,2.58,2.58,0,0,1,.88-.15C154.73,26.66,155.29,27.24,155.29,28.41Zm-3.06-2.17h-.35l1.29-1.75h.57L155,26.24h-.35l-1.22-1.11Zm2.23,4.41V29.12l-.38.07a6.45,6.45,0,0,0-1.15.29.94.94,0,0,0-.63.9.92.92,0,0,0,.27.73,1.06,1.06,0,0,0,.76.25,1,1,0,0,0,.45-.12,1,1,0,0,0,.38-.27l.19-.17C154.42,30.73,154.46,30.68,154.46,30.65Zm2-6.79-1.64,1h-.36l1.31-1.31.25-.25.32-.21h.06a.3.3,0,0,1,.33.23l0,.16a.17.17,0,0,1,0,.13.3.3,0,0,1-.11.13Z"/><path class="cls-12" d="M157,25.7l.84-.34v1.36h1.11l0,.23,0,.17H157.8v2.63l0,.36a1.94,1.94,0,0,0,.22,1.08.65.65,0,0,0,.57.26,1.24,1.24,0,0,0,.27,0l.21-.06v.25a2.64,2.64,0,0,1-.45.15,1.76,1.76,0,0,1-.42.06,1.22,1.22,0,0,1-.91-.3,1.72,1.72,0,0,1-.33-1.18l0-.17V27.12h-.65a.44.44,0,0,0,0-.19.51.51,0,0,0,0-.21H157Z"/></svg>